# xmcd CD database file
#
# Track frame offsets:
#	150
#	20639
#	50330
#	72624
#	102164
#	122206
#	145147
#	161893
#	184425
#	209963
#	232169
#	264433
#	290400
#	308531
#
# Disc length: 4519 seconds
#
# Revision: 0
# Processed by: cddbd v1.5.2PL0 Copyright (c) Steve Scherf et al.
# Submitted via: CDex 1.50
#
DISCID=e111a50e
DTITLE=Varios Interpretes - Recopilacion Salsa 9
DYEAR=1900
DGENRE=Salsa
TTITLE0=a la hora que me llamen voy -orquesta manzanillo
TTITLE1=amame en camara lenta-bobby valentin
TTITLE2=el preso -fruko y sus tesos
TTITLE3=en la oscuridad-bobby valentin
TTITLE4=me quede con las ganas-bobby valentin
TTITLE5=Nostalgia - Gabino Pampini
TTITLE6=para la luna-los nemus del pacifico
TTITLE7=por que me citas-bobby valentin
TTITLE8=se empeñan-lalo rodriguez
TTITLE9=solo contigo-latin brothers
TTITLE10=te amare-bobby valentin
TTITLE11=tu no me calculas-opus 13
TTITLE12=Un centímetro de ti - isaac
TTITLE13=ya no te quiero-lalo rodriguez
EXTD=
EXTT0=
EXTT1=
EXTT2=
EXTT3=
EXTT4=
EXTT5=
EXTT6=
EXTT7=
EXTT8=
EXTT9=
EXTT10=
EXTT11=
EXTT12=
EXTT13=
PLAYORDER=
